# xmcd CD database file
# Copyright (C) 1997 Ti Kan
# 
# Track frame offsets:
#     150
#     12810
#     23570
#     36087
#     49627
#     63757
#     76940
#     85104
#     100247
#     112865
# 
# Disc length: 1683 seconds
# 
# Revision: 1
# Processed by: cddbd v1.4b41PL1 Copyright (c) Steve Scherf et al.
# Submitted via: DiscPlay 4.0.4
# 
DISCID=6106910a
DTITLE=Elmore James - Dust My Broom
DYEAR=1900
DGENRE=
TTITLE0=Dust My Broom
TTITLE1=Take Me Where You Go
TTITLE2=Cry For My Baby
TTITLE3=Gotta Find My Baby
TTITLE4=Make A Little Love
TTITLE5=Catfish Blues
TTITLE6=The Woman I Love
TTITLE7=Lonesome Road
TTITLE8=Crossroads
TTITLE9=My Baby's Sweet
EXTD=
EXTT0=
EXTT1=
EXTT2=
EXTT3=
EXTT4=
EXTT5=
EXTT6=
EXTT7=
EXTT8=
EXTT9=
PLAYORDER=
